Coordinates
version=1
nRows=21
nColumns=22
inDegrees=yes

Units are S.I. units (second, meters, Newtons, ...)
If the header above contains a line with 'inDegrees', this indicates whether rotational values are in degrees (yes) or radians (no).

endheader
time	pelvis_tilt	pelvis_list	pelvis_rotation	pelvis_tx	pelvis_ty	pelvis_tz	hip_flexion_r	hip_adduction_r	hip_rotation_r	knee_angle_r	ankle_angle_r	subtalar_angle_r	hip_flexion_l	hip_adduction_l	hip_rotation_l	knee_angle_l	ankle_angle_l	subtalar_angle_l	lumbar_extension	lumbar_bending	lumbar_rotation
      4.22000000	      3.51388909	     10.46533276	    172.44072147	      0.53563999	      0.96706350	     -0.66468080	      4.27834847	     10.24387983	     -3.27521804	    -12.39795207	     10.47219023	      8.58764245	     29.00576986	     -6.98279994	      4.84249052	    -50.42027797	     10.15740967	     -4.25753220	     -1.47374512	     11.25984707	      1.97117755
      4.23000000	      3.50952379	     10.36658677	    172.46433131	      0.52986915	      0.96692867	     -0.66691973	      3.67144608	     10.25569830	     -3.20500341	    -12.02725954	     10.67504134	      8.44511126	     29.43603091	     -6.88024713	      4.24482803	    -48.76706758	     10.00731464	     -4.32362217	     -1.50145940	     11.18318664	      2.15066467
      4.24000000	      3.50936067	     10.24407553	    172.47474670	      0.52406767	      0.96671338	     -0.66905246	      3.10822790	     10.23547678	     -3.14028731	    -11.71512442	     10.89741860	      8.29274895	     29.81432116	     -6.74034432	      3.70388781	    -47.02442045	      9.80409025	     -4.32644191	     -1.52089587	     11.07875913	      2.31995371
      4.25000000	      3.50947608	     10.10279923	    172.47741193	      0.51823757	      0.96643211	     -0.67109725	      2.58382748	     10.18950262	     -3.08266133	    -11.46137549	     11.13916303	      8.12516601	     30.13363791	     -6.56656672	      3.23526798	    -45.18721499	      9.54869629	     -4.27460177	     -1.53916771	     10.94682893	      2.46817623
      4.26000000	      3.50680837	      9.96479367	    172.48529631	      0.51236194	      0.96608657	     -0.67303666	      2.08400607	     10.14051678	     -3.02237059	    -11.25311456	     11.39071569	      7.92836774	     30.39452845	     -6.37509359	      2.86347101	    -43.26896005	      9.24924978	     -4.17163378	     -1.55936711	     10.81516675	      2.58469625
      4.27000000	      3.52344132	      9.80625677	    172.49615499	      0.50645012	      0.96565804	     -0.67488263	      1.64951961	     10.06207922	     -3.01119162	    -11.11607641	     11.65238711	      7.75511252	     30.62378214	     -6.15145305	      2.57385947	    -41.27150666	      8.87914227	     -4.02277101	     -1.55184531	     10.65657025	      2.68147375
      4.28000000	      3.53943903	      9.66033796	    172.51738007	      0.50046916	      0.96516608	     -0.67665750	      1.23397432	      9.99207385	     -3.00779060	    -11.02148815	     11.91455564	      7.57832259	     30.80549454	     -5.93273875	      2.37186190	    -39.21892566	      8.46988562	     -3.84963698	     -1.54158905	     10.50345921	      2.74570184
      4.29000000	      3.55176750	      9.52760314	    172.54443915	      0.49441850	      0.96461741	     -0.67837827	      0.82896246	      9.93132917	     -2.99897892	    -10.96314047	     12.17729935	      7.38658174	     30.93982595	     -5.72898496	      2.24706170	    -37.12471790	      8.02744262	     -3.66574243	     -1.53218082	     10.35501367	      2.78663403
      4.30000000	      3.56220183	      9.41291304	    172.57521937	      0.48827255	      0.96400183	     -0.68005839	      0.42805772	      9.88616241	     -2.98737165	    -10.93173289	     12.43918341	      7.18079307	     31.04028362	     -5.55858492	      2.16887475	    -35.02001613	      7.56865137	     -3.49377853	     -1.51938893	     10.21758112	      2.80944225
      4.31000000	      3.55250035	      9.33341462	    172.60504633	      0.48201137	      0.96334760	     -0.68173575	     -0.01193920	      9.87775806	     -2.93900416	    -10.89219799	     12.68502210	      6.90207846	     31.09597639	     -5.45210605	      2.10645326	    -32.93438871	      7.11570896	     -3.35481601	     -1.52479042	     10.10318115	      2.82885240
      4.32000000	      3.56962337	      9.26175577	    172.63657967	      0.47566628	      0.96257662	     -0.68337986	     -0.39210524	      9.87377236	     -2.93393888	    -10.92129629	     12.96167229	      6.70028081	     31.17064812	     -5.38508397	      2.04409443	    -30.88985644	      6.68417266	     -3.28041039	     -1.49191153	      9.99055162	      2.83732058
      4.33000000	      3.55738766	      9.22631093	    172.66190659	      0.46918112	      0.96178068	     -0.68502831	     -0.82756772	      9.90510906	     -2.89297177	    -10.93364037	     13.22973631	      6.45184956	     31.20908157	     -5.39795773	      1.92656532	    -28.91635205	      6.30329611	     -3.29922332	     -1.48544420	      9.90167164	      2.86169306
      4.34000000	      3.54640020	      9.22489295	    172.68367171	      0.46259550	      0.96091616	     -0.68668491	     -1.26493874	      9.97356821	     -2.83572597	    -10.96130649	     13.49102854	      6.18346525	     31.25806825	     -5.48784460	      1.74571722	    -27.03915744	      5.98476601	     -3.43290383	     -1.47250312	      9.83763892	      2.88536997
      4.35000000	      3.53803953	      9.24948970	    172.70099111	      0.45590999	      0.95998108	     -0.68834030	     -1.69538376	     10.06774897	     -2.77441615	    -11.01538628	     13.75218722	      5.92379377	     31.32942511	     -5.64697795	      1.47043481	    -25.28300443	      5.74955393	     -3.66760933	     -1.45163500	      9.79039549	      2.90317313
      4.36000000	      3.55918134	      9.28274350	    172.71379426	      0.44913126	      0.95895064	     -0.68998831	     -2.08911049	     10.17190198	     -2.70934910	    -11.09291550	     14.02651400	      5.74378863	     31.46058972	     -5.85597395	      1.08442806	    -23.66682992	      5.58464687	     -3.86495285	     -1.38984189	      9.74375573	      2.91933915
      4.37000000	      3.53778889	      9.35984314	    172.71287094	      0.44225117	      0.95791148	     -0.69163075	     -2.51713166	     10.31260179	     -2.62152581	    -11.21566792	     14.28796192	      5.51348861	     31.57572766	     -6.14837658	      0.55733712	    -22.21350982	      5.57120412	     -4.25135412	     -1.38175513	      9.73286628	      2.93169663
      4.38000000	      3.53936275	      9.46114169	    172.73180678	      0.43527257	      0.95678474	     -0.69322049	     -2.92325423	     10.47902799	     -2.56126638	    -11.34647463	     14.53712348	      5.29174404	     31.75248607	     -6.47781429	     -0.03794477	    -20.92932187	      5.62378926	     -4.70508888	     -1.34314288	      9.74200817	      2.92636013
      4.39000000	      3.55271845	      9.57332181	    172.72953966	      0.42817888	      0.95560067	     -0.69481289	     -3.30916567	     10.65250785	     -2.48497558	    -11.51386324	     14.81402235	      5.14082208	     31.97380881	     -6.85345079	     -0.76118297	    -19.83005655	      5.76906829	     -5.06196249	     -1.28844007	      9.75148985	      2.94889822
      4.40000000	      3.53663827	      9.69915576	    172.74902625	      0.42096960	      0.95440123	     -0.69630215	     -3.72429768	     10.82856681	     -2.44090206	    -11.69615605	     15.09164137	      4.96769107	     32.19220326	     -7.24111822	     -1.54862741	    -18.90368151	      5.96331098	     -5.56601275	     -1.26840175	      9.76920265	      2.94111124
      4.41000000	      3.55352539	      9.83244963	    172.72831447	      0.41367461	      0.95314246	     -0.69777790	     -4.09805047	     11.00743435	     -2.33594815	    -11.91056696	     15.35233826	      4.89403062	     32.46939035	     -7.67083008	     -2.44408300	    -18.16639230	      6.22596923	     -5.83490901	     -1.22005959	      9.79349473	      2.96670111
      4.42000000	      3.53401553	      9.96012610	    172.71846627	      0.40621645	      0.95190366	     -0.69915286	     -4.52597592	     11.16543820	     -2.24966290	    -12.11091171	     15.60504872	      4.81961488	     32.72503916	     -8.09308754	     -3.40740394	    -17.60719378	      6.48066630	     -6.19190926	     -1.20603868	      9.80196954	      2.98862638
